{"accessors":[{"bufferView":3,"componentType":5126,"count":27488,"max":[90.1732406616211,177.3340301513672,19.19420051574707],"min":[-90.1732406616211,-1.2525930404663086,-12.438626289367676],"type":"VEC3"},{"bufferView":3,"byteOffset":329856,"componentType":5126,"count":27488,"max":[0.9999741315841675,0.9998060464859009,0.9999982118606567],"min":[-0.9999445080757141,-0.999968409538269,-0.9999980926513672],"type":"VEC3"},{"bufferView":4,"componentType":5126,"count":27488,"max":[0.9999989867210388,0.9999927282333374,0.9999507665634155,1.0],"min":[-0.9999892115592957,-1.0,-0.9999828338623047,-1.0],"type":"VEC4"},{"bufferView":2,"componentType":5126,"count":27488,"max":[0.9990770220756531,0.9921709895133972],"min":[0.0,0.0],"type":"VEC2"},{"bufferView":1,"componentType":5125,"count":149601,"type":"SCALAR"},{"bufferView":5,"componentType":5126,"count":66,"max":[1.0,0.9985089898109436,0.44121667742729187,0.0,0.09632959961891174,1.0,0.9994620084762573,0.0,0.9997659921646118,0.9727020263671875,1.0,0.0,35.698585510253906,89.83042907714844,162.962158203125,1.0],"min":[-0.9979760050773621,-0.9985989928245544,-0.446379154920578,0.0,-0.09633737802505493,-0.995917022228241,-0.9986979961395264,0.0,-0.9998130202293396,-0.12478898465633392,-0.2758101224899292,0.0,-36.355140686035156,-151.63088989257812,-11.753617286682129,1.0],"type":"MAT4"},{"bufferView":0,"componentType":5123,"count":27488,"type":"VEC4"},{"bufferView":4,"byteOffset":439808,"componentType":5126,"count":27488,"max":[1.0,0.4999380111694336,0.31572696566581726,0.22935858368873596],"min":[0.2675116956233978,0.0,0.0,0.0],"type":"VEC4"},{"bufferView":6,"componentType":5126,"count":1,"max":[0.0],"min":[0.0],"type":"SCALAR"},{"bufferView":8,"componentType":5126,"count":1,"max":[-0.00039749545976519585,-0.00599998515099287,0.12900499999523163,0.9916257262229919],"min":[-0.00039749545976519585,-0.00599998515099287,0.12900499999523163,0.9916257262229919],"type":"VEC4"},{"bufferView":6,"byteOffset":4,"componentType":5126,"count":1,"max":[0.0],"min":[0.0],"type":"SCALAR"},{"bufferView":8,"byteOffset":16,"componentType":5126,"count":1,"max":[0.0004837186716031283,-0.005872730165719986,0.01895320788025856,0.9998030066490173],"min":[0.0004837186716031283,-0.005872730165719986,0.01895320788025856,0.9998030066490173],"type":"VEC4"},{"bufferView":6,"byteOffset":8,"componentType":5126,"count":1,"max":[0.0],"min":[0.0],"type":"SCALAR"},{"bufferView":8,"byteOffset":32,"componentType":5126,"count":1,"max":[0.20271866023540497,0.08327464014291763,0.2537670433521271,0.9421107769012451],"min":[0.20271866023540497,0.08327464014291763,0.2537670433521271,0.9421107769012451],"type":"VEC4"},{"bufferView":6,"byteOffset":12,"componentType":5126,"count":1,"max":[0.0],"min":[0.0],"type":"SCALAR"},{"bufferView":8,"byteOffset":48,"componentType":5126,"count":1,"max":[-3.065256635181868e-07,-3.7848787997063482e-06,-0.00021757185459136963,1.0],"min":[-3.065256635181868e-07,-3.7848787997063482e-06,-0.00021757185459136963,1.0],"type":"VEC4"},{"bufferView":6,"byteOffset":16,"componentType":5126,"count":1,"max":[0.0],"min":[0.0],"type":"SCALAR"},{"bufferView":8,"byteOffset":64,"componentType":5126,"count":1,"max":[-7.049180794638232e-09,2.249390490760561e-06,-0.00011152027582284063,1.0],"min":[-7.049180794638232e-09,2.249390490760561e-06,-0.00011152027582284063,1.0],"type":"VEC4"},{"bufferView":6,"byteOffset":20,"componentType":5126,"count":1,"max":[0.0],"min":[0.0],"type":"SCALAR"},{"bufferView":8,"byteOffset":80,"componentType":5126,"count":1,"max":[-0.015711097046732903,0.0016803774051368237,0.056644026190042496,0.9982693791389465],"min":[-0.015711097046732903,0.0016803774051368237,0.056644026190042496,0.9982693791389465],"type":"VEC4"},{"bufferView":6,"byteOffset":24,"componentType":5126,"count":1,"max":[0.0],"min":[0.0],"type":"SCALAR"},{"bufferView":8,"byteOffset":96,"componentType":5126,"count":1,"max":[2.0225930086326116e-07,1.1921624718524981e-06,-0.0004348008951637894,0.9999998807907104],"min":[2.0225930086326116e-07,1.1921624718524981e-06,-0.0004348008951637894,0.9999998807907104],"type":"VEC4"},{"bufferView":6,"byteOffset":28,"componentType":5126,"count":1,"max":[0.0],"min":[0.0],"type":"SCALAR"},{"bufferView":8,"byteOffset":112,"componentType":5126,"count":1,"max":[-4.2988381210307125e-07,6.483079687313875e-06,0.0002234875864814967,1.0],"min":[-4.2988381210307125e-07,6.483079687313875e-06,0.0002234875864814967,1.0],"type":"VEC4"},{"bufferView":6,"byteOffset":32,"componentType":5126,"count":1,"max":[0.0],"min":[0.0],"type":"SCALAR"},{"bufferView":8,"byteOffset":128,"componentType":5126,"count":1,"max":[-0.015491008758544922,-0.0022143968380987644,0.05656073987483978,0.9982765316963196],"min":[-0.015491008758544922,-0.0022143968380987644,0.05656073987483978,0.9982765316963196],"type":"VEC4"},{"bufferView":6,"byteOffset":36,"componentType":5126,"count":1,"max":[0.0],"min":[0.0],"type":"SCALAR"},{"bufferView":8,"byteOffset":144,"componentType":5126,"count":1,"max":[-2.1999696286911785e-08,0.00016301058349199593,-0.0031304825097322464,0.9999951124191284],"min":[-2.1999696286911785e-08,0.00016301058349199593,-0.0031304825097322464,0.9999951124191284],"type":"VEC4"},{"bufferView":6,"byteOffset":40,"componentType":5126,"count":1,"max":[0.0],"min":[0.0],"type":"SCALAR"},{"bufferView":8,"byteOffset":160,"componentType":5126,"count":1,"max":[-1.5151577770211588e-07,3.3125535992439836e-05,0.00017987204773817211,1.0],"min":[-1.5151577770211588e-07,3.3125535992439836e-05,0.00017987204773817211,1.0],"type":"VEC4"},{"bufferView":6,"byteOffset":44,"componentType":5126,"count":1,"max":[0.0],"min":[0.0],"type":"SCALAR"},{"bufferView":8,"byteOffset":176,"componentType":5126,"count":1,"max":[-0.01543360110372305,-0.003245558589696884,0.05735223367810249,0.998229444026947],"min":[-0.01543360110372305,-0.003245558589696884,0.05735223367810249,0.998229444026947],"type":"VEC4"},{"bufferView":6,"byteOffset":48,"componentType":5126,"count":1,"max":[0.0],"min":[0.0],"type":"SCALAR"},{"bufferView":8,"byteOffset":192,"componentType":5126,"count":1,"max":[-3.9506966231783736e-07,-1.2670524483837653e-05,0.0027336624916642904,0.9999962449073792],"min":[-3.9506966231783736e-07,-1.2670524483837653e-05,0.0027336624916642904,0.9999962449073792],"type":"VEC4"},{"bufferView":6,"byteOffset":52,"componentType":5126,"count":1,"max":[0.0],"min":[0.0],"type":"SCALAR"},{"bufferView":8,"byteOffset":208,"componentType":5126,"count":1,"max":[-3.946312006064545e-07,-3.4162571864726488e-06,-0.001770169590599835,0.9999984502792358],"min":[-3.946312006064545e-07,-3.4162571864726488e-06,-0.001770169590599835,0.9999984502792358],"type":"VEC4"},{"bufferView":6,"byteOffset":56,"componentType":5126,"count":1,"max":[0.0],"min":[0.0],"type":"SCALAR"},{"bufferView":8,"byteOffset":224,"componentType":5126,"count":1,"max":[-0.014977450482547283,-0.011320020072162151,0.05703968554735184,0.9981953501701355],"min":[-0.014977450482547283,-0.011320020072162151,0.05703968554735184,0.9981953501701355],"type":"VEC4"},{"bufferView":6,"byteOffset":60,"componentType":5126,"count":1,"max":[0.0],"min":[0.0],"type":"SCALAR"},{"bufferView":8,"byteOffset":240,"componentType":5126,"count":1,"max":[0.013280265964567661,0.04101112484931946,-0.05713558942079544,0.9974353313446045],"min":[0.013280265964567661,0.04101112484931946,-0.05713558942079544,0.9974353313446045],"type":"VEC4"},{"bufferView":6,"byteOffset":64,"componentType":5126,"count":1,"max":[0.0],"min":[0.0],"type":"SCALAR"},{"bufferView":8,"byteOffset":256,"componentType":5126,"count":1,"max":[-1.7642430805153708e-07,-0.0016653052298352122,4.114192790893867e-07,0.9999986290931702],"min":[-1.7642430805153708e-07,-0.0016653052298352122,4.114192790893867e-07,0.9999986290931702],"type":"VEC4"},{"bufferView":6,"byteOffset":68,"componentType":5126,"count":1,"max":[0.0],"min":[0.0],"type":"SCALAR"},{"bufferView":8,"byteOffset":272,"componentType":5126,"count":1,"max":[-0.13106699287891388,0.006226923782378435,0.012682696804404259,0.9912728071212769],"min":[-0.13106699287891388,0.006226923782378435,0.012682696804404259,0.9912728071212769],"type":"VEC4"},{"bufferView":6,"byteOffset":72,"componentType":5126,"count":1,"max":[0.0],"min":[0.0],"type":"SCALAR"},{"bufferView":8,"byteOffset":288,"componentType":5126,"count":1,"max":[-0.5534963607788086,-0.4357137382030487,0.5688076019287109,-0.42456239461898804],"min":[-0.5534963607788086,-0.4357137382030487,0.5688076019287109,-0.42456239461898804],"type":"VEC4"},{"bufferView":6,"byteOffset":76,"componentType":5126,"count":1,"max":[0.0],"min":[0.0],"type":"SCALAR"},{"bufferView":8,"byteOffset":304,"componentType":5126,"count":1,"max":[-0.00023713469272479415,0.002817054744809866,-0.07515930384397507,0.9971675276756287],"min":[-0.00023713469272479415,0.002817054744809866,-0.07515930384397507,0.9971675276756287],"type":"VEC4"},{"bufferView":6,"byteOffset":80,"componentType":5126,"count":1,"max":[0.0],"min":[0.0],"type":"SCALAR"},{"bufferView":8,"byteOffset":320,"componentType":5126,"count":1,"max":[9.785248403204605e-05,0.0017554386286064982,-0.06456956267356873,0.9979116320610046],"min":[9.785248403204605e-05,0.0017554386286064982,-0.06456956267356873,0.9979116320610046],"type":"VEC4"},{"bufferView":6,"byteOffset":84,"componentType":5126,"count":1,"max":[0.0],"min":[0.0],"type":"SCALAR"},{"bufferView":8,"byteOffset":336,"componentType":5126,"count":1,"max":[0.2023719698190689,-0.08413997292518616,-0.24660934507846832,0.9440073370933533],"min":[0.2023719698190689,-0.08413997292518616,-0.24660934507846832,0.9440073370933533],"type":"VEC4"},{"bufferView":6,"byteOffset":88,"componentType":5126,"count":1,"max":[0.0],"min":[0.0],"type":"SCALAR"},{"bufferView":8,"byteOffset":352,"componentType":5126,"count":1,"max":[-4.321956339481403e-07,5.572831014433177e-06,0.00027760863304138184,0.9999999403953552],"min":[-4.321956339481403e-07,5.572831014433177e-06,0.00027760863304138184,0.9999999403953552],"type":"VEC4"},{"bufferView":6,"byteOffset":92,"componentType":5126,"count":1,"max":[0.0],"min":[0.0],"type":"SCALAR"},{"bufferView":8,"byteOffset":368,"componentType":5126,"count":1,"max":[-1.4627966038460727e-07,-4.812629413208924e-06,0.00029093027114868164,0.9999999403953552],"min":[-1.4627966038460727e-07,-4.812629413208924e-06,0.00029093027114868164,0.9999999403953552],"type":"VEC4"},{"bufferView":6,"byteOffset":96,"componentType":5126,"count":1,"max":[0.0],"min":[0.0],"type":"SCALAR"},{"bufferView":8,"byteOffset":384,"componentType":5126,"count":1,"max":[-0.012548423372209072,-0.0019454749999567866,-0.056024085730314255,0.9983486533164978],"min":[-0.012548423372209072,-0.0019454749999567866,-0.056024085730314255,0.9983486533164978],"type":"VEC4"},{"bufferView":6,"byteOffset":100,"componentType":5126,"count":1,"max":[0.0],"min":[0.0],"type":"SCALAR"},{"bufferView":8,"byteOffset":400,"componentType":5126,"count":1,"max":[-3.260711594066379e-07,1.9670851543196477e-06,9.439883433515206e-05,1.0],"min":[-3.260711594066379e-07,1.9670851543196477e-06,9.439883433515206e-05,1.0],"type":"VEC4"},{"bufferView":6,"byteOffset":104,"componentType":5126,"count":1,"max":[0.0],"min":[0.0],"type":"SCALAR"},{"bufferView":8,"byteOffset":416,"componentType":5126,"count":1,"max":[-2.958700520139246e-07,-1.9374868998056627e-07,-0.00022138652275316417,1.0],"min":[-2.958700520139246e-07,-1.9374868998056627e-07,-0.00022138652275316417,1.0],"type":"VEC4"},{"bufferView":6,"byteOffset":108,"componentType":5126,"count":1,"max":[0.0],"min":[0.0],"type":"SCALAR"},{"bufferView":8,"byteOffset":432,"componentType":5126,"count":1,"max":[-0.012332159094512463,0.0019348283531144261,-0.05570875108242035,0.998369038105011],"min":[-0.012332159094512463,0.0019348283531144261,-0.05570875108242035,0.998369038105011],"type":"VEC4"},{"bufferView":6,"byteOffset":112,"componentType":5126,"count":1,"max":[0.0],"min":[0.0],"type":"SCALAR"},{"bufferView":8,"byteOffset":448,"componentType":5126,"count":1,"max":[3.906105234818824e-07,-4.246423941367539e-06,0.00041466945549473166,0.9999999403953552],"min":[3.906105234818824e-07,-4.246423941367539e-06,0.00041466945549473166,0.9999999403953552],"type":"VEC4"},{"bufferView":6,"byteOffset":116,"componentType":5126,"count":1,"max":[0.0],"min":[0.0],"type":"SCALAR"},{"bufferView":8,"byteOffset":464,"componentType":5126,"count":1,"max":[-1.457239449109693e-07,4.1686939766805153e-07,8.197129500331357e-05,1.0],"min":[-1.457239449109693e-07,4.1686939766805153e-07,8.197129500331357e-05,1.0],"type":"VEC4"},{"bufferView":6,"byteOffset":120,"componentType":5126,"count":1,"max":[0.0],"min":[0.0],"type":"SCALAR"},{"bufferView":8,"byteOffset":480,"componentType":5126,"count":1,"max":[-0.012223833240568638,0.00389172718860209,-0.056016705930233,0.9983474016189575],"min":[-0.012223833240568638,0.00389172718860209,-0.056016705930233,0.9983474016189575],"type":"VEC4"},{"bufferView":6,"byteOffset":124,"componentType":5126,"count":1,"max":[0.0],"min":[0.0],"type":"SCALAR"},{"bufferView":8,"byteOffset":496,"componentType":5126,"count":1,"max":[-1.1603916938440761e-08,-2.089030203933362e-05,-0.0010035483865067363,0.9999995231628418],"min":[-1.1603916938440761e-08,-2.089030203933362e-05,-0.0010035483865067363,0.9999995231628418],"type":"VEC4"},{"bufferView":6,"byteOffset":128,"componentType":5126,"count":1,"max":[0.0],"min":[0.0],"type":"SCALAR"},{"bufferView":8,"byteOffset":512,"componentType":5126,"count":1,"max":[3.190476149939059e-07,2.8911124900332652e-05,0.0002119690616382286,1.0],"min":[3.190476149939059e-07,2.8911124900332652e-05,0.0002119690616382286,1.0],"type":"VEC4"},{"bufferView":6,"byteOffset":132,"componentType":5126,"count":1,"max":[0.0],"min":[0.0],"type":"SCALAR"},{"bufferView":8,"byteOffset":528,"componentType":5126,"count":1,"max":[-0.012121704407036304,0.0056876977905631065,-0.05571093410253525,0.9983571767807007],"min":[-0.012121704407036304,0.0056876977905631065,-0.05571093410253525,0.9983571767807007],"type":"VEC4"},{"bufferView":6,"byteOffset":136,"componentType":5126,"count":1,"max":[0.0],"min":[0.0],"type":"SCALAR"},{"bufferView":8,"byteOffset":544,"componentType":5126,"count":1,"max":[0.009843018837273121,-0.0462353490293026,0.056308310478925705,0.9972937107086182],"min":[0.009843018837273121,-0.0462353490293026,0.056308310478925705,0.9972937107086182],"type":"VEC4"},{"bufferView":6,"byteOffset":140,"componentType":5126,"count":1,"max":[0.0],"min":[0.0],"type":"SCALAR"},{"bufferView":8,"byteOffset":560,"componentType":5126,"count":1,"max":[-3.1194309713100665e-07,0.0016333472449332476,3.955693443913333e-07,0.9999986886978149],"min":[-3.1194309713100665e-07,0.0016333472449332476,3.955693443913333e-07,0.9999986886978149],"type":"VEC4"},{"bufferView":6,"byteOffset":144,"componentType":5126,"count":1,"max":[0.0],"min":[0.0],"type":"SCALAR"},{"bufferView":8,"byteOffset":576,"componentType":5126,"count":1,"max":[-0.1311306208372116,-0.006182084791362286,-0.011983676813542843,0.9912734031677246],"min":[-0.1311306208372116,-0.006182084791362286,-0.011983676813542843,0.9912734031677246],"type":"VEC4"},{"bufferView":6,"byteOffset":148,"componentType":5126,"count":1,"max":[0.0],"min":[0.0],"type":"SCALAR"},{"bufferView":8,"byteOffset":592,"componentType":5126,"count":1,"max":[0.5539263486862183,-0.4353829026222229,0.568446695804596,0.4248242974281311],"min":[0.5539263486862183,-0.4353829026222229,0.568446695804596,0.4248242974281311],"type":"VEC4"},{"bufferView":6,"byteOffset":152,"componentType":5126,"count":1,"max":[0.0],"min":[0.0],"type":"SCALAR"},{"bufferView":8,"byteOffset":608,"componentType":5126,"count":1,"max":[-0.04796643182635307,-1.4210450899554417e-05,0.00017546492745168507,0.9988489151000977],"min":[-0.04796643182635307,-1.4210450899554417e-05,0.00017546492745168507,0.9988489151000977],"type":"VEC4"},{"bufferView":6,"byteOffset":156,"componentType":5126,"count":1,"max":[0.0],"min":[0.0],"type":"SCALAR"},{"bufferView":8,"byteOffset":624,"componentType":5126,"count":1,"max":[0.4596520662307739,-0.055844053626060486,0.07162880152463913,0.8834425806999207],"min":[0.4596520662307739,-0.055844053626060486,0.07162880152463913,0.8834425806999207],"type":"VEC4"},{"bufferView":6,"byteOffset":160,"componentType":5126,"count":1,"max":[0.0],"min":[0.0],"type":"SCALAR"},{"bufferView":8,"byteOffset":640,"componentType":5126,"count":1,"max":[-0.010571564547717571,-0.00016181383398361504,-0.009259658865630627,0.9999012351036072],"min":[-0.010571564547717571,-0.00016181383398361504,-0.009259658865630627,0.9999012351036072],"type":"VEC4"},{"bufferView":6,"byteOffset":164,"componentType":5126,"count":1,"max":[0.0],"min":[0.0],"type":"SCALAR"},{"bufferView":8,"byteOffset":656,"componentType":5126,"count":1,"max":[-0.0029014970641583204,-0.011651124805212021,0.9999171495437622,-0.004637290723621845],"min":[-0.0029014970641583204,-0.011651124805212021,0.9999171495437622,-0.004637290723621845],"type":"VEC4"},{"bufferView":6,"byteOffset":168,"componentType":5126,"count":1,"max":[0.0],"min":[0.0],"type":"SCALAR"},{"bufferView":8,"byteOffset":672,"componentType":5126,"count":1,"max":[0.4639008045196533,0.05418137460947037,-0.07155687361955643,0.8813285827636719],"min":[0.4639008045196533,0.05418137460947037,-0.07155687361955643,0.8813285827636719],"type":"VEC4"},{"bufferView":6,"byteOffset":172,"componentType":5126,"count":1,"max":[0.0],"min":[0.0],"type":"SCALAR"},{"bufferView":8,"byteOffset":688,"componentType":5126,"count":1,"max":[-0.017648037523031235,0.00011150199134135619,0.009290539659559727,0.9998010993003845],"min":[-0.017648037523031235,0.00011150199134135619,0.009290539659559727,0.9998010993003845],"type":"VEC4"},{"bufferView":6,"byteOffset":176,"componentType":5126,"count":1,"max":[0.0],"min":[0.0],"type":"SCALAR"},{"bufferView":8,"byteOffset":704,"componentType":5126,"count":1,"max":[0.0026694692205637693,-0.006657885387539864,0.9999650120735168,0.004303547088056803],"min":[0.0026694692205637693,-0.006657885387539864,0.9999650120735168,0.004303547088056803],"type":"VEC4"},{"bufferView":6,"byteOffset":180,"componentType":5126,"count":1,"max":[0.0],"min":[0.0],"type":"SCALAR"},{"bufferView":7,"componentType":5126,"count":1,"max":[0.0020160821732133627,98.1937484741211,0.3384464979171753],"min":[0.0020160821732133627,98.1937484741211,0.3384464979171753],"type":"VEC3"},{"bufferView":6,"byteOffset":184,"componentType":5126,"count":1,"max":[0.0],"min":[0.0],"type":"SCALAR"},{"bufferView":8,"byteOffset":720,"componentType":5126,"count":1,"max":[2.362446366532822e-06,5.778046670457115e-06,-0.00017594457312952727,1.0],"min":[2.362446366532822e-06,5.778046670457115e-06,-0.00017594457312952727,1.0],"type":"VEC4"}],"animations":[{"channels":[{"sampler":0,"target":{"node":20,"path":"rotation"}},{"sampler":1,"target":{"node":19,"path":"rotation"}},{"sampler":2,"target":{"node":18,"path":"rotation"}},{"sampler":3,"target":{"node":24,"path":"rotation"}},{"sampler":4,"target":{"node":23,"path":"rotation"}},{"sampler":5,"target":{"node":22,"path":"rotation"}},{"sampler":6,"target":{"node":28,"path":"rotation"}},{"sampler":7,"target":{"node":27,"path":"rotation"}},{"sampler":8,"target":{"node":26,"path":"rotation"}},{"sampler":9,"target":{"node":32,"path":"rotation"}},{"sampler":10,"target":{"node":31,"path":"rotation"}},{"sampler":11,"target":{"node":30,"path":"rotation"}},{"sampler":12,"target":{"node":36,"path":"rotation"}},{"sampler":13,"target":{"node":35,"path":"rotation"}},{"sampler":14,"target":{"node":34,"path":"rotation"}},{"sampler":15,"target":{"node":17,"path":"rotation"}},{"sampler":16,"target":{"node":16,"path":"rotation"}},{"sampler":17,"target":{"node":15,"path":"rotation"}},{"sampler":18,"target":{"node":14,"path":"rotation"}},{"sampler":19,"target":{"node":44,"path":"rotation"}},{"sampler":20,"target":{"node":43,"path":"rotation"}},{"sampler":21,"target":{"node":42,"path":"rotation"}},{"sampler":22,"target":{"node":48,"path":"rotation"}},{"sampler":23,"target":{"node":47,"path":"rotation"}},{"sampler":24,"target":{"node":46,"path":"rotation"}},{"sampler":25,"target":{"node":52,"path":"rotation"}},{"sampler":26,"target":{"node":51,"path":"rotation"}},{"sampler":27,"target":{"node":50,"path":"rotation"}},{"sampler":28,"target":{"node":56,"path":"rotation"}},{"sampler":29,"target":{"node":55,"path":"rotation"}},{"sampler":30,"target":{"node":54,"path":"rotation"}},{"sampler":31,"target":{"node":60,"path":"rotation"}},{"sampler":32,"target":{"node":59,"path":"rotation"}},{"sampler":33,"target":{"node":58,"path":"rotation"}},{"sampler":34,"target":{"node":41,"path":"rotation"}},{"sampler":35,"target":{"node":40,"path":"rotation"}},{"sampler":36,"target":{"node":39,"path":"rotation"}},{"sampler":37,"target":{"node":38,"path":"rotation"}},{"sampler":38,"target":{"node":8,"path":"rotation"}},{"sampler":39,"target":{"node":64,"path":"rotation"}},{"sampler":40,"target":{"node":63,"path":"rotation"}},{"sampler":41,"target":{"node":62,"path":"rotation"}},{"sampler":42,"target":{"node":69,"path":"rotation"}},{"sampler":43,"target":{"node":68,"path":"rotation"}},{"sampler":44,"target":{"node":67,"path":"rotation"}},{"sampler":45,"target":{"node":7,"path":"translation"}},{"sampler":46,"target":{"node":7,"path":"rotation"}}],"name":"mixamo.com","samplers":[{"input":8,"interpolation":"LINEAR","output":9},{"input":10,"interpolation":"LINEAR","output":11},{"input":12,"interpolation":"LINEAR","output":13},{"input":14,"interpolation":"LINEAR","output":15},{"input":16,"interpolation":"LINEAR","output":17},{"input":18,"interpolation":"LINEAR","output":19},{"input":20,"interpolation":"LINEAR","output":21},{"input":22,"interpolation":"LINEAR","output":23},{"input":24,"interpolation":"LINEAR","output":25},{"input":26,"interpolation":"LINEAR","output":27},{"input":28,"interpolation":"LINEAR","output":29},{"input":30,"interpolation":"LINEAR","output":31},{"input":32,"interpolation":"LINEAR","output":33},{"input":34,"interpolation":"LINEAR","output":35},{"input":36,"interpolation":"LINEAR","output":37},{"input":38,"interpolation":"LINEAR","output":39},{"input":40,"interpolation":"LINEAR","output":41},{"input":42,"interpolation":"LINEAR","output":43},{"input":44,"interpolation":"LINEAR","output":45},{"input":46,"interpolation":"LINEAR","output":47},{"input":48,"interpolation":"LINEAR","output":49},{"input":50,"interpolation":"LINEAR","output":51},{"input":52,"interpolation":"LINEAR","output":53},{"input":54,"interpolation":"LINEAR","output":55},{"input":56,"interpolation":"LINEAR","output":57},{"input":58,"interpolation":"LINEAR","output":59},{"input":60,"interpolation":"LINEAR","output":61},{"input":62,"interpolation":"LINEAR","output":63},{"input":64,"interpolation":"LINEAR","output":65},{"input":66,"interpolation":"LINEAR","output":67},{"input":68,"interpolation":"LINEAR","output":69},{"input":70,"interpolation":"LINEAR","output":71},{"input":72,"interpolation":"LINEAR","output":73},{"input":74,"interpolation":"LINEAR","output":75},{"input":76,"interpolation":"LINEAR","output":77},{"input":78,"interpolation":"LINEAR","output":79},{"input":80,"interpolation":"LINEAR","output":81},{"input":82,"interpolation":"LINEAR","output":83},{"input":84,"interpolation":"LINEAR","output":85},{"input":86,"interpolation":"LINEAR","output":87},{"input":88,"interpolation":"LINEAR","output":89},{"input":90,"interpolation":"LINEAR","output":91},{"input":92,"interpolation":"LINEAR","output":93},{"input":94,"interpolation":"LINEAR","output":95},{"input":96,"interpolation":"LINEAR","output":97},{"input":98,"interpolation":"LINEAR","output":99},{"input":100,"interpolation":"LINEAR","output":101}]}],"asset":{"extras":{"author":"Subhash5922j (https://sketchfab.com/Subhash5922j)","license":"CC-BY-4.0 (http://creativecommons.org/licenses/by/4.0/)","source":"https://sketchfab.com/3d-models/racer-bikecar-9a7eae7771f94572aa72ca153153f340","title":"Racer Bike/Car"},"generator":"Sketchfab-12.68.0","version":"2.0"},"bufferViews":[{"buffer":0,"byteLength":219904,"byteStride":8,"name":"shortBufferViews","target":34962},{"buffer":0,"byteLength":598404,"byteOffset":219904,"name":"floatBufferViews","target":34963},{"buffer":0,"byteLength":219904,"byteOffset":818308,"byteStride":8,"name":"floatBufferViews","target":34962},{"buffer":0,"byteLength":659712,"byteOffset":1038212,"byteStride":12,"name":"floatBufferViews","target":34962},{"buffer":0,"byteLength":879616,"byteOffset":1697924,"byteStride":16,"name":"floatBufferViews","target":34962},{"buffer":0,"byteLength":4224,"byteOffset":2577540,"name":"floatBufferViews"},{"buffer":0,"byteLength":188,"byteOffset":2581764,"name":"floatBufferViews"},{"buffer":0,"byteLength":12,"byteOffset":2581952,"byteStride":12,"name":"floatBufferViews"},{"buffer":0,"byteLength":736,"byteOffset":2581964,"byteStride":16,"name":"floatBufferViews"}],"buffers":[{"byteLength":2582700,"uri":"zawodnik.bin"}],"materials":[{"name":"kevlar","pbrMetallicRoughness":{"baseColorFactor":[1,1,1,1],"metallicFactor":0.0,"roughnessFactor":0.72}}],"meshes":[{"name":"Ch20_Ch20_body_0","primitives":[{"attributes":{"JOINTS_0":6,"NORMAL":1,"POSITION":0,"TANGENT":2,"TEXCOORD_0":3,"TEXCOORD_1":3,"TEXCOORD_2":3,"TEXCOORD_3":3,"WEIGHTS_0":7},"indices":4,"material":0,"mode":4}]}],"nodes":[{"children":[1],"matrix":[1.0,0.0,0.0,0.0,0.0,2.220446049250313e-16,-1.0,0.0,0.0,1.0,2.220446049250313e-16,0.0,0.0,0.0,0.0,1.0],"name":"Sketchfab_model"},{"children":[2],"matrix":[1.0,0.0,0.0,0.0,0.0,0.0,1.0,0.0,0.0,-1.0,0.0,0.0,0.0,0.0,0.0,1.0],"name":"3e5a45f79e9941c890e8c3d5a2502be7.fbx"},{"children":[3],"name":"Object_2"},{"children":[4],"name":"RootNode"},{"children":[5,6,72],"name":"Object_4"},{"children":[7],"name":"_rootJoint"},{"mesh":0,"name":"Object_6","skin":0},{"children":[8,62,67],"name":"mixamorig6:Hips_01","translation":[0.0,97.82390594482422,2.5026323795318604]},{"children":[9],"name":"mixamorig6:Spine_02","rotation":[-0.04796408861875534,-0.0,0.0,0.9988491535186768],"translation":[0.0,10.236640930175781,-0.9853854179382324]},{"children":[10],"name":"mixamorig6:Spine1_03","rotation":[6.563741550280611e-09,0.0,0.0,1.0],"translation":[0.0,11.997945785522461,1.539334881783816e-08]},{"children":[11,14,38],"name":"mixamorig6:Spine2_04","translation":[0.0,13.711947441101074,-6.161473464771916e-08]},{"children":[12],"name":"mixamorig6:Neck_05","rotation":[0.047964081168174744,0.0,0.0,0.9988491535186768],"translation":[0.0,15.425926208496094,-5.722932883145404e-07]},{"children":[13],"name":"mixamorig6:Head_06","translation":[0.0,3.779815673828125,1.3458656072616577]},{"name":"mixamorig6:HeadTop_End_07","rotation":[6.938893903907228e-18,0.0,0.0,1.0],"translation":[0.0,25.046340942382812,8.918160438537598]},{"children":[15],"name":"mixamorig6:LeftShoulder_08","rotation":[-0.5541936755180359,-0.43477344512939453,0.5696826577186584,-0.42344197630882263],"translation":[6.191313743591309,13.647296905517578,-0.17566263675689697]},{"children":[16],"name":"mixamorig6:LeftArm_09","rotation":[-0.11095854640007019,0.002315576421096921,-0.020735394209623337,0.9936060905456543],"translation":[5.4233986190865835e-09,13.107656478881836,5.1270433232275536e-08]},{"children":[17],"name":"mixamorig6:LeftForeArm_010","rotation":[-0.02740117907524109,-0.0016615823842585087,0.060505129396915436,0.9977903366088867],"translation":[-8.522802019683695e-09,27.071653366088867,5.229367161518894e-09]},{"children":[18,22,26,30,34],"name":"mixamorig6:LeftHand_011","rotation":[0.048652950674295425,0.03728063032031059,-0.021908292546868324,0.9978793859481812],"translation":[1.04950732549014e-08,25.56771469116211,4.869463055001688e-09]},{"children":[19],"name":"mixamorig6:LeftHandThumb1_012","rotation":[0.16388149559497833,0.0546337254345417,0.3115072548389435,0.9344095587730408],"translation":[-2.6382863521575928,2.825700044631958,1.391003131866455]},{"children":[20],"name":"mixamorig6:LeftHandThumb2_013","rotation":[0.07157301157712936,-4.3513137982915026e-17,-2.47045679027026e-17,0.9974353909492493],"translation":[-0.33194324374198914,3.2700207233428955,1.4674981230200501e-09]},{"children":[21],"name":"mixamorig6:LeftHandThumb3_014","rotation":[-0.0898783802986145,-5.029723661571153e-17,-6.027574464678777e-17,0.995952844619751],"translation":[-0.2187243402004242,3.4535136222839355,-1.5390858720820688e-07]},{"name":"mixamorig6:LeftHandThumb4_015","rotation":[-7.371905752506791e-09,1.3877787807814457e-17,-5.551115123125783e-17,1.0],"translation":[0.5506681203842163,2.781010866165161,-6.829662879681564e-08]},{"children":[23],"name":"mixamorig6:LeftHandIndex1_016","rotation":[0.06291111558675766,0.006941920146346092,0.1094592735171318,0.9919741153717041],"translation":[-3.483823299407959,9.472835540771484,0.020217807963490486]},{"children":[24],"name":"mixamorig6:LeftHandIndex2_017","rotation":[0.015924446284770966,-1.6698779753446926e-17,-1.3613595419151758e-17,0.9998732209205627],"translation":[0.0008339955820702016,3.1122512817382812,-1.7643770888753352e-08]},{"children":[25],"name":"mixamorig6:LeftHandIndex3_018","rotation":[0.020319275557994843,-8.953813231857798e-18,-1.3698680871320187e-17,0.999793529510498],"translation":[0.00011923431884497404,2.9269659519195557,-1.3285870181789505e-08]},{"name":"mixamorig6:LeftHandIndex4_019","rotation":[3.0734998990311624e-09,-3.469446951953614e-18,1.3877787807814457e-17,1.0],"translation":[-0.0009531546966172755,2.493255615234375,1.734332499836455e-08]},{"children":[27],"name":"mixamorig6:LeftHandMiddle1_020","rotation":[0.06380391865968704,0.0018547818763181567,0.028998497873544693,0.9975393414497375],"translation":[-1.1398066282272339,10.027220726013184,-0.3148202896118164]},{"children":[28],"name":"mixamorig6:LeftHandMiddle2_021","rotation":[0.03378278389573097,4.334333351958953e-19,-1.4650947076943933e-20,0.9994292259216309],"translation":[-0.00012792545021511614,3.179243803024292,4.6203808778955135e-08]},{"children":[29],"name":"mixamorig6:LeftHandMiddle3_022","rotation":[-0.06285299360752106,-3.5807134976899596e-18,2.0632417304108148e-17,0.9980227947235107],"translation":[0.0013463302748277783,3.1302621364593506,-2.127146103703126e-08]},{"name":"mixamorig6:LeftHandMiddle4_023","rotation":[1.0240753134382885e-08,-3.469446745158461e-18,2.0816681711721685e-17,1.0],"translation":[-0.001218480640091002,2.6418614387512207,1.8513532040742575e-08]},{"children":[31],"name":"mixamorig6:LeftHandRing1_024","rotation":[0.042759865522384644,-0.0013746159384027123,-0.03210131451487541,0.998568594455719],"translation":[1.1627187728881836,10.182934761047363,-0.188439279794693]},{"children":[32],"name":"mixamorig6:LeftHandRing2_025","rotation":[0.019452063366770744,-6.748790195705132e-20,-3.4687905841375534e-18,0.9998108148574829],"translation":[0.004172101151198149,2.7568705081939697,-3.5465006931190146e-08]},{"children":[33],"name":"mixamorig6:LeftHandRing3_026","rotation":[-0.12952832877635956,-1.7201096760948328e-18,-2.2469583273239314e-19,0.9915757179260254],"translation":[0.0050677647814154625,2.708357334136963,-5.794751700705092e-08]},{"name":"mixamorig6:LeftHandRing4_027","rotation":[5.6416320504126816e-09,9.786671252525257e-26,1.734723475976807e-17,1.0],"translation":[-0.0092398626729846,2.101435899734497,-1.5168382105912315e-09]},{"children":[35],"name":"mixamorig6:LeftHandPinky1_028","rotation":[0.09597878903150558,-0.006919313687831163,-0.07157181203365326,0.9927828907966614],"translation":[3.460911273956299,9.344649314880371,-0.08260418474674225]},{"children":[36],"name":"mixamorig6:LeftHandPinky2_029","rotation":[0.003072278806939721,-3.4481123095946465e-18,6.949519866056085e-18,0.9999952912330627],"translation":[0.0016817775322124362,2.615379810333252,7.081399644448538e-08]},{"children":[37],"name":"mixamorig6:LeftHandPinky3_030","rotation":[0.07989849895238876,2.90394844169934e-18,-7.19391451393794e-18,0.9968031048774719],"translation":[-0.006284920498728752,2.179643392562866,1.2578189512169047e-07]},{"name":"mixamorig6:LeftHandPinky4_031","rotation":[-8.922533822897094e-09,-2.7755575615628914e-17,-2.7755575615628914e-17,1.0],"translation":[0.004603139590471983,1.78508722782135,-8.731507250558934e-08]},{"children":[39],"name":"mixamorig6:RightShoulder_032","rotation":[0.5546225905418396,-0.4344424307346344,0.5693220496177673,0.42370501160621643],"translation":[-6.191313743591309,13.646448135375977,-0.1668444722890854]},{"children":[40],"name":"mixamorig6:RightArm_033","rotation":[-0.1109655350446701,-0.0023282524198293686,0.020847545936703682,0.9936028718948364],"translation":[-5.264711333552441e-09,13.107656478881836,5.1286406232975423e-08]},{"children":[41],"name":"mixamorig6:RightForeArm_034","rotation":[-0.027542319148778915,0.0016297949478030205,-0.05904831364750862,0.9978737831115723],"translation":[9.62100621393347e-09,27.06964683532715,-1.050597120411112e-08]},{"children":[42,46,50,54,58],"name":"mixamorig6:RightHand_035","rotation":[0.0506395548582077,-0.03645158186554909,0.02020590379834175,0.9978470206260681],"translation":[-3.142386617582815e-08,25.56541633605957,6.632689064645092e-09]},{"children":[43],"name":"mixamorig6:RightHandThumb1_036","rotation":[0.17726875841617584,-0.058847587555646896,-0.3095168471336365,0.9323690533638],"translation":[2.8620762825012207,2.949683666229248,1.6079332828521729]},{"children":[44],"name":"mixamorig6:RightHandThumb2_037","rotation":[0.03147786483168602,4.2486418245557057e-17,2.6431292542156018e-17,0.9995044469833374],"translation":[0.4239005148410797,3.505126476287842,3.622156441451807e-08]},{"children":[45],"name":"mixamorig6:RightHandThumb3_038","rotation":[-0.0335378460586071,3.788649332892927e-17,1.1235614112642476e-16,0.9994374513626099],"translation":[-0.028531676158308983,3.210986375808716,-2.981974489557615e-08]},{"name":"mixamorig6:RightHandThumb4_039","rotation":[-2.069028326445732e-08,-2.7755573961267688e-17,-5.551115123125783e-17,1.0],"translation":[-0.3953688442707062,2.4605038166046143,-8.445013577329519e-08]},{"children":[47],"name":"mixamorig6:RightHandIndex1_040","rotation":[0.05668719485402107,-0.006509997881948948,-0.11390497535467148,0.9918517470359802],"translation":[3.4605565071105957,9.583146095275879,0.01646246202290058]},{"children":[48],"name":"mixamorig6:RightHandIndex2_041","rotation":[0.02198665589094162,-6.98544349287865e-18,-4.148981119121847e-17,0.9997583627700806],"translation":[-0.0016446394147351384,3.1150152683258057,1.7704451238387264e-09]},{"children":[49],"name":"mixamorig6:RightHandIndex3_042","rotation":[0.01624182052910328,1.959895273603542e-18,1.3847781831094096e-17,0.9998680949211121],"translation":[0.000180114628165029,2.9267139434814453,-3.44240618233016e-08]},{"name":"mixamorig6:RightHandIndex4_043","rotation":[7.613729202660124e-09,-5.204170014340115e-18,2.7755575615628914e-17,1.0],"translation":[0.0014643402537330985,2.405292510986328,1.4657814517704537e-08]},{"children":[51],"name":"mixamorig6:RightHandMiddle1_044","rotation":[0.051063090562820435,-0.0012236310867592692,-0.02392498217523098,0.9984080791473389],"translation":[1.126994013786316,10.050407409667969,-0.25131699442863464]},{"children":[52],"name":"mixamorig6:RightHandMiddle2_045","rotation":[0.04180211201310158,-1.4431467561476573e-18,7.00534380405545e-18,0.9991258978843689],"translation":[0.0007462131907232106,3.2388222217559814,-6.181016942718998e-08]},{"children":[53],"name":"mixamorig6:RightHandMiddle3_046","rotation":[-0.014933688566088676,-4.769957681802348e-18,-7.12410013419634e-20,0.9998884797096252],"translation":[-0.0006823340663686395,3.089866876602173,7.152561920520384e-08]},{"name":"mixamorig6:RightHandMiddle4_047","rotation":[4.517930030090156e-09,4.336807655966252e-19,-2.0816681711721685e-17,1.0],"translation":[-6.389824557118118e-05,2.640864849090576,2.5361231337228674e-08]},{"children":[55],"name":"mixamorig6:RightHandRing1_048","rotation":[0.044546209275722504,0.0019444952486082911,0.04356629401445389,0.9980550408363342],"translation":[-1.149361491203308,10.290410995483398,-0.20621059834957123]},{"children":[56],"name":"mixamorig6:RightHandRing2_049","rotation":[-0.0013483455404639244,-1.7253658918997244e-18,-6.941226553234628e-18,0.9999991059303284],"translation":[-0.0009537440491840243,2.8321692943573,1.8087206399286515e-08]},{"children":[57],"name":"mixamorig6:RightHandRing3_050","rotation":[-0.018449371680617332,-1.4783919914703527e-18,-1.3907432306607132e-17,0.999829888343811],"translation":[-0.0004955918993800879,2.645568370819092,2.0403888356668176e-08]},{"name":"mixamorig6:RightHandRing4_051","rotation":[-1.6638250777134544e-09,2.309021137782772e-26,-1.3877787807814457e-17,1.0],"translation":[0.001449317904189229,2.186387300491333,-1.4023868288859376e-08]},{"children":[59],"name":"mixamorig6:RightHandPinky1_052","rotation":[0.053609587252140045,0.0034428543876856565,0.06399630755186081,0.9965032935142517],"translation":[-3.4381890296936035,9.21314811706543,0.02380325086414814]},{"children":[60],"name":"mixamorig6:RightHandPinky2_053","rotation":[0.056046489626169205,-6.9279871139404104e-18,3.889006452024252e-19,0.9984281659126282],"translation":[0.0007766732014715672,2.635331153869629,-3.3474151450718637e-08]},{"children":[61],"name":"mixamorig6:RightHandPinky3_054","rotation":[0.07569757103919983,-2.1010296568979522e-18,-2.7675942938058434e-17,0.9971309304237366],"translation":[0.0016265353187918663,2.2000865936279297,-1.0428806263007573e-08]},{"name":"mixamorig6:RightHandPinky4_055","rotation":[-9.319989224820802e-09,-1.3877787807814457e-17,-3.469446951953614e-17,1.0],"translation":[-0.0024031565990298986,1.8754334449768066,-2.1497129409908666e-08]},{"children":[63],"name":"mixamorig6:LeftUpLeg_056","rotation":[-0.0015928087523207068,-0.03882083296775818,0.9984049201011658,-0.04096429795026779],"translation":[9.149312973022461,-5.691619873046875,-0.20977330207824707]},{"children":[64],"name":"mixamorig6:LeftLeg_057","rotation":[0.006746198050677776,-6.184278754517436e-05,-0.009166485629975796,0.9999353289604187],"translation":[-5.2365010105859255e-08,40.899662017822266,1.7101156402077322e-07]},{"children":[65],"name":"mixamorig6:LeftFoot_058","rotation":[0.4662158191204071,-0.07153970748186111,0.03785974532365799,0.8809605836868286],"translation":[-1.495512975679958e-07,38.97267150878906,-1.336388351091955e-07]},{"children":[66],"name":"mixamorig6:LeftToeBase_059","rotation":[0.31471535563468933,-0.06863783299922943,0.02282416634261608,0.9464259743690491],"translation":[8.642055604468624e-08,19.41917610168457,-1.0710242293043848e-07]},{"name":"mixamorig6:LeftToe_End_060","rotation":[-1.5544643350295928e-10,-8.624828282122188e-17,-1.340698844781451e-26,1.0],"translation":[4.094927064102194e-08,6.90696382522583,-1.8441828064652555e-09]},{"children":[68],"name":"mixamorig6:RightUpLeg_00","rotation":[0.0014844314428046346,-0.03616497665643692,0.9985039830207825,0.04098470136523247],"translation":[-9.149312973022461,-5.691619873046875,-0.45545268058776855]},{"children":[69],"name":"mixamorig6:RightLeg_061","rotation":[-0.0002040057152044028,-1.8778265484797885e-06,0.009204389527440071,0.9999576210975647],"translation":[-4.6688754196111404e-08,40.88341522216797,-5.871216757213915e-08]},{"children":[70],"name":"mixamorig6:RightFoot_062","rotation":[0.4724465310573578,0.06997691094875336,-0.03766404837369919,0.877769410610199],"translation":[-1.4866095909837895e-07,38.99549102783203,4.7616637743885804e-08]},{"children":[71],"name":"mixamorig6:RightToeBase_063","rotation":[0.3122718930244446,0.06305582076311111,-0.020777856931090355,0.9476701617240906],"translation":[-1.009409800190042e-07,19.559999465942383,6.8375012318711015e-09]},{"name":"mixamorig6:RightToe_End_064","rotation":[-1.4585715968351565e-10,1.0196921432226169e-16,-1.3877787807814457e-17,1.0],"translation":[-4.1669629524676566e-08,7.207510471343994,-1.2816163685869242e-09]},{"name":"Ch20"}],"scene":0,"scenes":[{"name":"Sketchfab_Scene","nodes":[0]}],"skins":[{"inverseBindMatrices":5,"joints":[5,7,8,9,10,11,12,13,14,15,16,17,18,19,20,21,22,23,24,25,26,27,28,29,30,31,32,33,34,35,36,37,38,39,40,41,42,43,44,45,46,47,48,49,50,51,52,53,54,55,56,57,58,59,60,61,62,63,64,65,66,67,68,69,70,71],"skeleton":5}]}